{"title":"The Flash 2014 S01E01 City of Heroes 720p HDTV X265","uid":11176225,"size":420400872,"categoryP":"video","categoryS":"hd___tv_shows","magnet":"?xt=urn:btih:9012caa1d0c507618441d2a82d8d55ba7da89a60&amp;dn=The+Flash+2014+S01E01+City+of+Heroes+720p+HDTV+X265&amp;tr=udp%3A%2F%2Ftracker.openbittorrent.com%3A80&amp;tr=udp%3A%2F%2Fopen.demonii.com%3A1337&amp;tr=udp%3A%2F%2Ftracker.coppersurfer.tk%3A6969&amp;tr=udp%3A%2F%2Fexodus.desync.com%3A6969","seeders":4,"leechers":2,"uploader":"atm50","files":-1,"time":1412792132,"description":"Nine months after the Star Labs explosion, Barry awakens to find a lot has changed while he was in a coma. With his new friends and powers Barry must try to right the wrongs of his new Mentor and Owner of Star Labs.\n\n\nSource: The.Flash.2014.S01E01.720p.HDTV.X264-DIMENSION\n\nFormat                         : MPEG-4\nFile size                      : 401 MiB\nDuration                       : 44mn 5s\nOverall bit rate               : 1 271 Kbps\n\nVideo\n\nFormat                         : HEVC [X265]\nBit rate                       : 1 013 Kbps\nMaximum bit rate               : 11.0 Mbps\nWidth                          : 1 280 pixels\nHeight                         : 720 pixels\nDisplay aspect ratio           : 16:9\nFrame rate                     : 23.976 fps\nStream size                    : 319 MiB (80%)\n\nAudio\n\nFormat                         : AC-3\nBit rate                       : 256 Kbps\nChannel(s)                     : 6 channels (5.1)\nSampling rate                  : 48.0 KHz\nBit depth                      : 16 bits\nCompression mode               : Lossy\nStream size                    : 80.7 MiB (20%)\n\nSubtitles: English (External)","torrent":{"xt":"urn:btih:9012caa1d0c507618441d2a82d8d55ba7da89a60","amp;dn":"The+Flash+2014+S01E01+City+of+Heroes+720p+HDTV+X265","amp;tr":["udp%3A%2F%2Ftracker.openbittorrent.com%3A80","udp%3A%2F%2Fopen.demonii.com%3A1337","udp%3A%2F%2Ftracker.coppersurfer.tk%3A6969","udp%3A%2F%2Fexodus.desync.com%3A6969"],"infoHash":"9012caa1d0c507618441d2a82d8d55ba7da89a60","infoHashBuffer":{"type":"Buffer","data":[144,18,202,161,208,197,7,97,132,65,210,168,45,141,85,186,125,168,154,96]},"announce":[],"urlList":[]}}